<mxfile host="65bd71144e">
    <diagram id="pyFOITWGm1L5QSNy7el4" name="Page-1">
        <mxGraphModel dx="1430" dy="1284" grid="0" gridSize="10" guides="1" tooltips="1" connect="0" arrows="1" fold="1" page="0" pageScale="1" pageWidth="850" pageHeight="1100" background="#ffffff" math="0" shadow="0">
            <root>
                <mxCell id="0"/>
                <mxCell id="1" parent="0"/>
                <mxCell id="17" value="Phase1:DocumentからTextUnitに変換" style="rounded=0;whiteSpace=wrap;html=1;fontSize=14;fontColor=#333333;fillColor=#f5f5f5;strokeColor=#666666;verticalAlign=top;fontStyle=1" parent="1" vertex="1">
                    <mxGeometry x="247" y="-8" width="737" height="247" as="geometry"/>
                </mxCell>
                <mxCell id="121" style="edgeStyle=none;hachureGap=4;html=1;entryX=0.504;entryY=0.002;entryDx=0;entryDy=0;entryPerimeter=0;fontFamily=Architects Daughter;fontSource=https%3A%2F%2Ffonts.googleapis.com%2Fcss%3Ffamily%3DArchitects%2BDaughter;fontSize=16;" edge="1" parent="1" source="28" target="29">
                    <mxGeometry relative="1" as="geometry"/>
                </mxCell>
                <mxCell id="123" style="edgeStyle=none;sketch=0;hachureGap=4;jiggle=2;curveFitting=1;html=1;entryX=0.464;entryY=-0.008;entryDx=0;entryDy=0;entryPerimeter=0;fontFamily=Architects Daughter;fontSource=https%3A%2F%2Ffonts.googleapis.com%2Fcss%3Ffamily%3DArchitects%2BDaughter;fontSize=16;" edge="1" parent="1" source="28" target="122">
                    <mxGeometry relative="1" as="geometry"/>
                </mxCell>
                <mxCell id="28" value="Document1" style="rounded=1;whiteSpace=wrap;html=1;fontSize=14;fontStyle=1;fillColor=#dae8fc;strokeColor=#6c8ebf;" parent="1" vertex="1">
                    <mxGeometry x="382" y="65" width="116" height="46" as="geometry"/>
                </mxCell>
                <mxCell id="29" value="TextUnit1" style="rounded=1;whiteSpace=wrap;html=1;fontSize=14;fontStyle=1;fillColor=#dae8fc;strokeColor=#6c8ebf;" parent="1" vertex="1">
                    <mxGeometry x="299" y="145" width="116" height="46" as="geometry"/>
                </mxCell>
                <mxCell id="122" value="TextUnit2" style="rounded=1;whiteSpace=wrap;html=1;fontSize=14;fontStyle=1;fillColor=#dae8fc;strokeColor=#6c8ebf;" vertex="1" parent="1">
                    <mxGeometry x="462" y="145" width="116" height="46" as="geometry"/>
                </mxCell>
                <mxCell id="130" style="edgeStyle=none;hachureGap=4;html=1;entryX=0.504;entryY=0.002;entryDx=0;entryDy=0;entryPerimeter=0;fontFamily=Architects Daughter;fontSource=https%3A%2F%2Ffonts.googleapis.com%2Fcss%3Ffamily%3DArchitects%2BDaughter;fontSize=16;" edge="1" source="132" target="133" parent="1">
                    <mxGeometry relative="1" as="geometry"/>
                </mxCell>
                <mxCell id="131" style="edgeStyle=none;sketch=0;hachureGap=4;jiggle=2;curveFitting=1;html=1;entryX=0.464;entryY=-0.008;entryDx=0;entryDy=0;entryPerimeter=0;fontFamily=Architects Daughter;fontSource=https%3A%2F%2Ffonts.googleapis.com%2Fcss%3Ffamily%3DArchitects%2BDaughter;fontSize=16;" edge="1" source="132" target="134" parent="1">
                    <mxGeometry relative="1" as="geometry"/>
                </mxCell>
                <mxCell id="132" value="Document2" style="rounded=1;whiteSpace=wrap;html=1;fontSize=14;fontStyle=1;fillColor=#dae8fc;strokeColor=#6c8ebf;" vertex="1" parent="1">
                    <mxGeometry x="719" y="65" width="116" height="46" as="geometry"/>
                </mxCell>
                <mxCell id="133" value="TextUnit3" style="rounded=1;whiteSpace=wrap;html=1;fontSize=14;fontStyle=1;fillColor=#dae8fc;strokeColor=#6c8ebf;" vertex="1" parent="1">
                    <mxGeometry x="636" y="145" width="116" height="46" as="geometry"/>
                </mxCell>
                <mxCell id="134" value="TextUnit4" style="rounded=1;whiteSpace=wrap;html=1;fontSize=14;fontStyle=1;fillColor=#dae8fc;strokeColor=#6c8ebf;" vertex="1" parent="1">
                    <mxGeometry x="799" y="145" width="116" height="46" as="geometry"/>
                </mxCell>
                <mxCell id="146" value="Phase2" style="rounded=0;whiteSpace=wrap;html=1;fontSize=14;fontColor=#333333;fillColor=#f5f5f5;strokeColor=#666666;verticalAlign=top;fontStyle=1" vertex="1" parent="1">
                    <mxGeometry x="247" y="325" width="737" height="247" as="geometry"/>
                </mxCell>
                <mxCell id="147" style="edgeStyle=none;hachureGap=4;html=1;entryX=0.504;entryY=0.002;entryDx=0;entryDy=0;entryPerimeter=0;fontFamily=Architects Daughter;fontSource=https%3A%2F%2Ffonts.googleapis.com%2Fcss%3Ffamily%3DArchitects%2BDaughter;fontSize=16;" edge="1" source="149" target="150" parent="1">
                    <mxGeometry relative="1" as="geometry"/>
                </mxCell>
                <mxCell id="149" value="Graph データ 抽出" style="rounded=1;whiteSpace=wrap;html=1;fontSize=14;fontStyle=1;fillColor=#dae8fc;strokeColor=#6c8ebf;" vertex="1" parent="1">
                    <mxGeometry x="361" y="398" width="137" height="46" as="geometry"/>
                </mxCell>
                <mxCell id="150" value="Graph 要約" style="rounded=1;whiteSpace=wrap;html=1;fontSize=14;fontStyle=1;fillColor=#dae8fc;strokeColor=#6c8ebf;" vertex="1" parent="1">
                    <mxGeometry x="371.5" y="488" width="116" height="46" as="geometry"/>
                </mxCell>
                <mxCell id="157" value="Claim 抽出" style="rounded=1;whiteSpace=wrap;html=1;fontSize=14;fontStyle=1;fillColor=#dae8fc;strokeColor=#6c8ebf;" vertex="1" parent="1">
                    <mxGeometry x="561" y="398" width="137" height="46" as="geometry"/>
                </mxCell>
            </root>
        </mxGraphModel>
    </diagram>
</mxfile>